<svg width="35" height="35" viewBox="0 0 35 35" fill="none" xmlns="http://www.w3.org/2000/svg">
<path fill-rule="evenodd" clip-rule="evenodd" d="M17.5 35C27.165 35 35 27.165 35 17.5C35 7.83502 27.165 0 17.5 0C7.83502 0 0 7.83502 0 17.5C0 27.165 7.83502 35 17.5 35ZM9.09932 10.1502H25.8993C26.1778 10.1502 26.4449 10.2608 26.6418 10.4577C26.8387 10.6546 26.9493 10.9217 26.9493 11.2002V23.1002C26.9493 23.5643 26.7649 24.0094 26.4368 24.3376C26.1086 24.6658 25.6634 24.8502 25.1993 24.8502H9.79932C9.33519 24.8502 8.89007 24.6658 8.56188 24.3376C8.23369 24.0094 8.04932 23.5643 8.04932 23.1002V11.2002C8.04932 10.9217 8.15994 10.6546 8.35685 10.4577C8.55377 10.2608 8.82084 10.1502 9.09932 10.1502ZM11.7987 12.2502L17.4993 17.4757L23.1999 12.2502H11.7987ZM10.1493 21.4132L14.4184 17.5002L10.1493 13.5872V21.4132ZM16.7897 19.6745L15.9724 18.9247L11.7987 22.7502H23.1999L19.0262 18.9247L18.2089 19.6745C18.0153 19.8521 17.7621 19.9506 17.4993 19.9506C17.2366 19.9506 16.9834 19.8521 16.7897 19.6745ZM24.8493 13.5872L20.5802 17.5002L24.8493 21.4132V13.5872Z" fill="#333333"/>
</svg>
