<svg xmlns="http://www.w3.org/2000/svg" fill="none" viewBox="-2 -2 29 29" height="29" width="29"><g id="horizontal-menu-circle--navigation-dots-three-circle-button-horizontal-menu"><path id="Vector" stroke="#333333" stroke-linecap="round" stroke-linejoin="round" d="M12.500000000000002 24.10714285714286c6.410535714285715 0 11.60714285714286 -5.196607142857143 11.60714285714286 -11.60714285714286C24.10714285714286 6.0895535714285725 18.910535714285718 0.892857142857143 12.500000000000002 0.892857142857143 6.0895535714285725 0.892857142857143 0.892857142857143 6.0895535714285725 0.892857142857143 12.500000000000002c0 6.410535714285715 5.196696428571429 11.60714285714286 11.60714285714286 11.60714285714286Z" stroke-width="4"></path><g id="Group 2606"><path id="Ellipse 1111" stroke="#333333" stroke-linecap="round" stroke-linejoin="round" d="M7.142857142857144 12.946428571428573c-0.24655357142857148 0 -0.4464285714285715 -0.19987500000000002 -0.4464285714285715 -0.4464285714285715s0.19987500000000002 -0.4464285714285715 0.4464285714285715 -0.4464285714285715" stroke-width="4"></path><path id="Ellipse 1112" stroke="#333333" stroke-linecap="round" stroke-linejoin="round" d="M7.142857142857144 12.946428571428573c0.24655357142857148 0 0.4464285714285715 -0.19987500000000002 0.4464285714285715 -0.4464285714285715s-0.19987500000000002 -0.4464285714285715 -0.4464285714285715 -0.4464285714285715" stroke-width="4"></path></g><g id="Group 2632"><path id="Ellipse 1111_2" stroke="#333333" stroke-linecap="round" stroke-linejoin="round" d="M12.500000000000002 12.946428571428573c-0.24655357142857148 0 -0.4464285714285715 -0.19987500000000002 -0.4464285714285715 -0.4464285714285715s0.19987500000000002 -0.4464285714285715 0.4464285714285715 -0.4464285714285715" stroke-width="4"></path><path id="Ellipse 1112_2" stroke="#333333" stroke-linecap="round" stroke-linejoin="round" d="M12.500000000000002 12.946428571428573c0.24655357142857148 0 0.4464285714285715 -0.19987500000000002 0.4464285714285715 -0.4464285714285715s-0.19987500000000002 -0.4464285714285715 -0.4464285714285715 -0.4464285714285715" stroke-width="4"></path></g><g id="Group 2633"><path id="Ellipse 1111_3" stroke="#333333" stroke-linecap="round" stroke-linejoin="round" d="M17.85714285714286 12.946428571428573c-0.24655357142857148 0 -0.4464285714285715 -0.19987500000000002 -0.4464285714285715 -0.4464285714285715s0.19987500000000002 -0.4464285714285715 0.4464285714285715 -0.4464285714285715" stroke-width="4"></path><path id="Ellipse 1112_3" stroke="#333333" stroke-linecap="round" stroke-linejoin="round" d="M17.85714285714286 12.946428571428573c0.2466071428571429 0 0.4464285714285715 -0.19987500000000002 0.4464285714285715 -0.4464285714285715s-0.1998214285714286 -0.4464285714285715 -0.4464285714285715 -0.4464285714285715" stroke-width="4"></path></g></g></svg>