<svg width="271" height="102" viewBox="0 0 271 102" fill="none" xmlns="http://www.w3.org/2000/svg">
<path d="M8.03814 59.545L5.33231 50.8166C5.33231 50.8166 6.70896 49.627 8.81349 47.8498C10.9022 46.1012 13.7188 43.7937 16.5354 41.4862C19.352 39.1787 22.1685 36.8425 24.2731 35.0796C26.3776 33.3024 27.7859 32.0985 27.7859 32.0985C27.7859 32.0985 31.0614 32.6145 34.3368 33.1734C37.6281 33.7467 40.9511 34.3487 40.9511 34.3487C40.9511 34.3487 38.894 36.0399 35.7926 38.5337C34.2419 39.7663 32.4538 41.1852 30.5234 42.6758C28.5929 44.1664 26.5358 45.7286 24.4788 47.2765C22.4217 48.8101 20.3647 50.3293 18.4342 51.7482C16.4879 53.1814 14.6998 54.5143 13.1491 55.6609C10.0794 57.9541 8.03814 59.545 8.03814 59.545ZM0.0947266 70.8246C0.0947266 70.8246 0.11055 68.2878 0.142197 64.461C0.173844 62.5405 0.189668 60.2903 0.205491 57.9111C0.221315 55.5606 0.221315 53.0381 0.221315 50.5299C0.205491 48.0074 0.205491 45.4849 0.189668 43.1201C0.189668 40.7553 0.173844 38.5481 0.158021 36.6562C0.142197 32.8581 0.126374 30.3213 0.126374 30.3213L11.0763 30.5506C11.0763 30.5506 11.0921 33.1018 11.1395 36.9285C11.1554 38.8491 11.1554 41.1136 11.1395 43.5644C11.1237 46.0296 11.0921 48.6667 11.0763 51.2896C11.0604 53.9124 11.0288 56.5065 10.9971 58.9431C10.9655 61.3652 10.9497 63.6154 10.918 65.5359C10.8705 69.3484 10.8231 71.8709 10.8231 71.8709L0.0947266 70.8246ZM28.6087 75.9412C28.6087 75.9412 27.5802 74.4507 26.0453 72.1862C24.5421 69.9217 22.5167 66.8545 20.5229 63.7874C18.4975 60.7633 16.4563 57.7678 14.8739 55.5749C13.3232 53.3964 12.2788 51.9488 12.2788 51.9488L19.7792 47.1188C19.7792 47.1188 21.1717 49.068 23.2287 52.0635C25.2541 55.0733 27.9283 59.1724 30.65 63.2428C33.4033 67.2702 36.1882 71.2546 38.2769 74.207C40.3814 77.1452 41.7897 79.0944 41.7897 79.0944L28.6087 75.9412Z" fill="url(#paint0_linear_3253_2514)"/>
<path d="M61.6483 84.2684C57.4867 83.3368 53.8948 81.8319 50.8883 79.7824C47.9135 77.6755 45.6349 75.2104 44.0367 72.4155C42.4544 69.5347 41.6949 66.4676 41.7423 63.2142C41.774 60.663 42.2645 58.4128 43.1823 56.4349C44.0842 54.4427 45.3817 52.7945 47.0274 51.5333C48.6572 50.186 50.6035 49.3118 52.8821 48.8675C55.2082 48.3945 57.7716 48.4088 60.5882 48.9391C63.2782 49.4264 65.7625 50.315 68.0252 51.6479C70.3038 52.9665 72.3134 54.6291 74.0223 56.5926C75.7154 58.5418 77.013 60.7203 77.9149 63.1138C78.801 65.45 79.1492 67.9152 78.9909 70.452L78.8485 73.2182C78.8485 73.2182 76.9497 72.9028 74.1015 72.3869C71.2374 71.8136 67.4239 71.0253 63.6104 70.2227C59.7812 69.3771 55.9677 68.5171 53.1194 67.8722C50.3029 67.2129 48.4357 66.7829 48.4357 66.7829L46.885 60.749C46.885 60.749 52.4549 62.0102 58.1355 63.2715C63.8795 64.4897 69.6076 65.6793 69.6076 65.6793L68.3575 66.6683L68.3733 65.364C68.2942 64.2318 67.8986 63.1712 67.2182 62.1966C66.5694 61.1646 65.7308 60.319 64.6548 59.6167C63.563 58.8858 62.3604 58.4128 60.9996 58.1405C59.1166 57.7535 57.5026 57.7679 56.1576 58.1978C54.8759 58.5705 53.8948 59.3444 53.2302 60.5053C52.5814 61.5946 52.2333 63.0565 52.2175 64.8911C52.2017 66.7256 52.5973 68.4311 53.4359 69.9934C54.322 71.5126 55.5879 72.8312 57.2336 73.9348C58.9267 75.0527 60.9363 75.8697 63.294 76.3856C64.9238 76.7439 66.3637 76.8443 67.6138 76.7153C68.9272 76.5863 70.3354 76.185 71.8703 75.497L76.8231 82.9498C75.2724 83.6951 73.6584 84.2254 71.9653 84.5407C70.2722 84.8417 68.5474 84.942 66.7752 84.8847C65.0662 84.8561 63.3573 84.6411 61.6483 84.2684Z" fill="url(#paint1_linear_3253_2514)"/>
<path d="M85.289 88.3388C85.289 88.3388 85.5105 85.6873 85.827 81.4879C85.9378 79.3381 86.0643 76.7869 86.1593 73.9777C86.2068 71.1256 86.2226 68.0011 86.1909 64.8194C86.096 61.5659 85.9694 58.2695 85.827 55.145C85.6529 51.9919 85.4631 49.0251 85.3048 46.4739C84.9409 41.3573 84.6719 37.9175 84.6719 37.9175L95.2262 38.2471C95.2262 38.2471 95.4635 41.6869 95.8275 46.8179C96.0015 49.3834 96.1914 52.3645 96.3971 55.5463C96.587 58.7138 96.7611 62.0819 96.9193 65.407C97.0301 68.6748 97.0933 71.8852 97.1092 74.7804C97.0617 77.6038 96.9668 80.1407 96.8718 82.2619C96.6186 86.3179 96.4129 88.8978 96.4129 88.8978L85.289 88.3388Z" fill="url(#paint2_linear_3253_2514)"/>
<path d="M106.017 88.7257C106.017 88.7257 106.239 86.1315 106.508 82.0181C106.587 79.8826 106.634 77.3171 106.634 74.4506C106.555 71.4982 106.381 68.2447 106.16 64.9196C105.906 61.5372 105.637 58.1547 105.384 54.9586C105.131 51.7768 104.91 48.7957 104.704 46.2302C104.34 41.1135 104.103 37.7024 104.103 37.7024L113.407 36.1975C113.407 36.1975 113.628 39.537 113.976 44.539C114.182 47.0471 114.419 49.9709 114.688 53.0811C114.973 56.1912 115.29 59.4876 115.606 62.7697C115.923 66.0089 116.223 69.205 116.477 72.1574C116.682 75.0526 116.793 77.7041 116.793 79.9256C116.651 84.1823 116.477 86.8911 116.477 86.8911L106.017 88.7257Z" fill="url(#paint3_linear_3253_2514)"/>
<path d="M127.443 96.5942C127.443 96.5942 129.342 92.1942 131.161 87.4788C132.918 82.6058 134.532 77.6038 134.532 77.6038L134.611 82.6345C134.611 82.6345 133.804 80.8143 132.57 78.0338C131.921 76.6149 131.098 74.9523 130.149 73.1608C129.152 71.3406 128.06 69.377 126.952 67.3848C125.829 65.364 124.705 63.3144 123.645 61.3652C122.585 59.373 121.604 57.5098 120.765 55.8903C119.104 52.5938 117.996 50.3723 117.996 50.3723L127.759 47.4055C127.759 47.4055 129.626 51.5189 131.494 55.5463C133.377 59.5164 135.228 63.3718 135.228 63.3718C135.624 64.117 135.987 64.934 136.367 65.8226C136.715 66.6969 137.016 67.5568 137.238 68.4024L136.256 69.721C136.383 68.9901 136.51 68.1014 136.636 67.0552C136.794 65.9373 136.953 64.7477 137.127 63.5008C137.127 63.5008 137.87 58.3268 138.677 53.0668C139.564 47.8068 140.576 42.4608 140.576 42.4608L150.118 36.8425C150.118 36.8425 149.39 39.4797 148.346 43.4641C147.365 47.4915 146.146 52.8661 145.07 58.1691C144.073 63.3718 143.108 68.4454 142.364 72.2005C141.573 75.8553 140.988 78.2344 140.988 78.2344C140.988 78.2344 139.943 82.2618 138.788 86.2606C137.586 90.159 136.336 93.9571 136.336 93.9571L127.443 96.5942Z" fill="url(#paint4_linear_3253_2514)"/>
<path d="M172.271 61.7807C172.271 61.7807 172.002 58.513 171.938 53.7116C171.954 51.3181 172.018 48.5663 172.097 45.6282C172.16 42.7187 172.271 39.6659 172.397 36.6848C172.571 33.7753 172.745 30.9375 172.92 28.3433C173.109 25.8351 173.283 23.5563 173.41 21.6501C173.727 17.9237 173.948 15.4872 173.948 15.4872L185.151 12.248C185.151 12.248 184.898 14.0826 184.534 16.8774C184.17 19.7295 183.648 23.628 183.11 27.813C182.698 32.342 182.429 37.0431 182.24 40.6548C182.097 44.3096 182.002 46.7604 182.002 46.7604C182.002 46.7604 186.971 45.5995 192.066 44.5389C197.399 43.636 202.937 42.905 202.937 42.905L202.383 54.5429C202.383 54.5429 200.31 54.7722 197.209 55.1449C194.186 55.5605 190.23 56.1625 186.354 56.8361C182.556 57.5814 178.948 58.7279 176.337 59.8315C173.853 60.9925 172.271 61.7807 172.271 61.7807Z" fill="url(#paint5_linear_3253_2514)"/>
<path d="M210.912 53.8981C210.912 53.8981 211.118 51.2753 211.355 47.3769C211.624 43.5644 212.099 38.6198 212.7 33.8614C213.412 29.2464 214.203 24.8034 214.821 21.5786C215.438 18.4541 215.849 16.4332 215.849 16.4332L228.049 15.9316C228.049 15.9316 227.638 18.0385 227.005 21.3063C226.372 24.66 225.581 29.2894 224.853 34.0047C224.22 38.8061 223.682 43.6934 223.334 47.4485C223.049 51.3326 222.843 54.0414 222.843 54.0414L210.912 53.8981ZM223.254 9.74003C220.928 9.94068 219.156 9.71136 217.954 9.06641C216.798 8.42145 216.355 7.36085 216.609 5.94195C216.814 4.69503 217.653 3.6201 219.125 2.6885C220.564 1.78556 222.432 1.2266 224.694 1.02594C227.02 0.853953 228.761 1.12627 229.948 1.78556C231.135 2.44485 231.593 3.44811 231.372 4.79536C231.15 6.0996 230.296 7.2032 228.809 8.10614C227.353 9.06641 225.501 9.5967 223.254 9.74003Z" fill="url(#paint6_linear_3253_2514)"/>
<path d="M233.998 55.1594C233.998 55.1594 234.188 52.5365 234.489 48.6525C234.837 44.8831 235.359 39.967 235.96 35.1657C236.625 30.479 237.337 25.907 237.906 22.5675C238.476 19.2854 238.872 17.1499 238.872 17.1499L249.331 19.3858L248.666 26.4659L246.325 26.7383C247.084 25.2764 248.192 24.0724 249.632 23.1122C251.119 22.1376 252.781 21.4926 254.616 21.1773C256.436 20.8763 258.271 20.9766 260.139 21.4926C262.67 22.2236 264.743 23.3702 266.389 24.9324C268.034 26.4803 269.221 28.4295 269.949 30.823C270.709 33.1878 270.978 35.9253 270.788 39.0641C270.788 39.0641 270.44 44.6681 270.092 50.4297C269.775 56.3203 269.427 62.2539 269.427 62.2539L258.572 59.6454C258.572 59.6454 258.92 53.7835 259.3 48.0362C259.759 42.4465 260.233 37.0002 260.233 37.0002C260.36 35.524 260.281 34.2914 259.964 33.2308C259.664 32.1846 259.11 31.3103 258.319 30.651C257.575 29.9487 256.594 29.4614 255.391 29.2034C254.458 28.9598 253.556 28.8881 252.701 29.0171C251.847 29.0744 251.103 29.3324 250.423 29.7767C249.758 30.178 249.189 30.6797 248.698 31.3103C248.287 31.9552 248.018 32.7292 247.891 33.6035C247.891 33.6035 247.227 39.1644 246.641 44.9117C246.151 50.8453 245.771 56.9366 245.771 56.9366L239.979 55.9763C238.619 55.7757 237.448 55.6037 236.451 55.4747C235.47 55.3457 234.647 55.2454 233.998 55.1594Z" fill="url(#paint7_linear_3253_2514)"/>
<defs>
<linearGradient id="paint0_linear_3253_2514" x1="0.822641" y1="55.3313" x2="268.316" y2="55.3313" gradientUnits="userSpaceOnUse">
<stop stop-color="#F3D4D2"/>
<stop offset="1" stop-color="#A4BAE1"/>
</linearGradient>
<linearGradient id="paint1_linear_3253_2514" x1="0.822713" y1="55.3314" x2="268.316" y2="55.3314" gradientUnits="userSpaceOnUse">
<stop stop-color="#F3D4D2"/>
<stop offset="1" stop-color="#A4BAE1"/>
</linearGradient>
<linearGradient id="paint2_linear_3253_2514" x1="0.82302" y1="55.3313" x2="268.317" y2="55.3313" gradientUnits="userSpaceOnUse">
<stop stop-color="#F3D4D2"/>
<stop offset="1" stop-color="#A4BAE1"/>
</linearGradient>
<linearGradient id="paint3_linear_3253_2514" x1="0.822437" y1="55.3312" x2="268.316" y2="55.3312" gradientUnits="userSpaceOnUse">
<stop stop-color="#F3D4D2"/>
<stop offset="1" stop-color="#A4BAE1"/>
</linearGradient>
<linearGradient id="paint4_linear_3253_2514" x1="0.82287" y1="55.3313" x2="268.316" y2="55.3313" gradientUnits="userSpaceOnUse">
<stop stop-color="#F3D4D2"/>
<stop offset="1" stop-color="#A4BAE1"/>
</linearGradient>
<linearGradient id="paint5_linear_3253_2514" x1="0.822896" y1="55.3312" x2="268.316" y2="55.3312" gradientUnits="userSpaceOnUse">
<stop stop-color="#F3D4D2"/>
<stop offset="1" stop-color="#A4BAE1"/>
</linearGradient>
<linearGradient id="paint6_linear_3253_2514" x1="0.822991" y1="55.3313" x2="268.317" y2="55.3313" gradientUnits="userSpaceOnUse">
<stop stop-color="#F3D4D2"/>
<stop offset="1" stop-color="#A4BAE1"/>
</linearGradient>
<linearGradient id="paint7_linear_3253_2514" x1="0.822557" y1="55.3314" x2="268.316" y2="55.3314" gradientUnits="userSpaceOnUse">
<stop stop-color="#F3D4D2"/>
<stop offset="1" stop-color="#A4BAE1"/>
</linearGradient>
</defs>
</svg>
