<svg xmlns="http://www.w3.org/2000/svg" fill="none" viewBox="-2 -2 29 29" height="29" width="29"><g id="layers-1--design-layer-layers-pile-stack-align"><path id="Vector" stroke="#333333" stroke-linecap="round" stroke-linejoin="round" d="M13.339339285714289 12.321357142857146c-0.264875 0.11501785714285716 -0.5505357142857145 0.1743571428571429 -0.8392857142857144 0.1743571428571429 -0.2887678571428572 0 -0.5744285714285716 -0.059339285714285726 -0.8392857142857144 -0.1743571428571429l-10.178578571428574 -4.714285714285715c-0.16528214285714288 -0.08335714285714287 -0.3041821428571429 -0.21096428571428574 -0.4012285714285715 -0.3686071428571429 -0.09704642857142859 -0.15764285714285717 -0.14843035714285718 -0.33912500000000007 -0.14843035714285718 -0.5242500000000001 0 -0.18512500000000004 0.05138392857142858 -0.36660714285714296 0.14843035714285718 -0.5242500000000001 0.09704642857142859 -0.15762500000000004 0.2359464285714286 -0.28523214285714293 0.4012285714285715 -0.3686071428571429L11.66076785714286 1.0713589285714287c0.2648571428571429 -0.11501250000000003 0.5505178571428573 -0.17436071428571434 0.8392857142857144 -0.17436071428571434 0.28875000000000006 0 0.5744107142857144 0.059348214285714296 0.8392857142857144 0.17436071428571434L23.517857142857146 5.785642857142858c0.1653571428571429 0.08337500000000002 0.3042857142857143 0.2109821428571429 0.4012500000000001 0.3686071428571429 0.09714285714285716 0.15764285714285717 0.14839285714285716 0.33912500000000007 0.14839285714285716 0.5242500000000001 0 0.18512500000000004 -0.05125000000000001 0.36660714285714296 -0.14839285714285716 0.5242500000000001 -0.09696428571428574 0.15764285714285717 -0.23589285714285718 0.28525000000000006 -0.4012500000000001 0.3686071428571429l-10.17851785714286 4.750000000000001Z" stroke-width="4"></path><path id="Vector_2" stroke="#333333" stroke-linecap="round" stroke-linejoin="round" d="M24.10714285714286 13.124964285714288 13.214285714285717 18.142857142857146c-0.2326428571428572 0.1060714285714286 -0.48537500000000006 0.16107142857142862 -0.7410714285714287 0.16107142857142862 -0.25569642857142866 0 -0.5084285714285715 -0.055000000000000014 -0.7410714285714287 -0.16107142857142862L0.892857142857143 13.124964285714288" stroke-width="4"></path><path id="Vector_3" stroke="#333333" stroke-linecap="round" stroke-linejoin="round" d="m24.10714285714286 18.92857142857143 -10.892857142857144 5.017857142857144c-0.2326428571428572 0.1060714285714286 -0.48537500000000006 0.16107142857142862 -0.7410714285714287 0.16107142857142862 -0.25569642857142866 0 -0.5084285714285715 -0.055000000000000014 -0.7410714285714287 -0.16107142857142862L0.892857142857143 18.92857142857143" stroke-width="4"></path></g></svg>