<svg xmlns="http://www.w3.org/2000/svg" fill="none" viewBox="0 0 29 29" height="29" width="29"><path fill="#000000" fill-rule="evenodd" d="M6.041666666666666 1.2083333333333333a4.833333333333333 4.833333333333333 0 0 0 -4.833333333333333 4.833333333333333v16.916666666666664a4.833333333333333 4.833333333333333 0 0 0 4.833333333333333 4.833333333333333h16.916666666666664a4.833333333333333 4.833333333333333 0 0 0 4.833333333333333 -4.833333333333333V6.041666666666666a4.833333333333333 4.833333333333333 0 0 0 -4.833333333333333 -4.833333333333333H6.041666666666666Zm1.4560416666666667 8.349583333333333a2.060208333333333 2.060208333333333 0 1 0 0 -4.120416666666666 2.060208333333333 2.060208333333333 0 0 0 0 4.120416666666666ZM9.556708333333333 23.5625V11.204875H5.4375V23.5625h4.120416666666666Zm5.355333333333333 -12.357624999999999H11.204875V23.5625h3.7071666666666667v-7.455416666666666c0.47729166666666667 -0.7757499999999999 1.301375 -1.6070833333333334 2.4710416666666664 -1.6070833333333334 1.6481666666666668 0 2.060208333333333 1.6481666666666668 2.060208333333333 2.47225V23.5625H23.5625v-6.590249999999999c0 -2.208833333333333 -0.9630416666666667 -5.7673749999999995 -4.53125 -5.7673749999999995 -2.2692499999999995 0 -3.528333333333333 0.8277083333333334 -4.120416666666666 1.6034583333333332V11.204875Z" clip-rule="evenodd" stroke-width="1.2083333333333333"></path></svg>