<svg width="35" height="35" viewBox="0 0 35 35" fill="none" xmlns="http://www.w3.org/2000/svg">
<path fill-rule="evenodd" clip-rule="evenodd" d="M17.5 35C27.165 35 35 27.165 35 17.5C35 7.83502 27.165 0 17.5 0C7.83502 0 0 7.83502 0 17.5C0 27.165 7.83502 35 17.5 35ZM15.3998 23.7998V16.9748C15.4001 16.6475 15.5024 16.3284 15.6924 16.0619C15.8825 15.7954 16.1508 15.5947 16.4601 15.4878C16.7695 15.3808 17.1045 15.3729 17.4185 15.4651C17.7326 15.5573 18.0101 15.7451 18.2125 16.0023C19.0125 15.583 19.9071 15.3771 20.8099 15.4047C21.7127 15.4322 22.5931 15.6922 23.366 16.1595C24.139 16.6268 24.7783 17.2856 25.2221 18.0722C25.666 18.8588 25.8994 19.7466 25.8998 20.6498V23.7998C25.8998 24.2175 25.7339 24.6182 25.4385 24.9135C25.1432 25.2089 24.7425 25.3748 24.3248 25.3748C23.9071 25.3748 23.5065 25.2089 23.2111 24.9135C22.9158 24.6182 22.7498 24.2175 22.7498 23.7998V20.6498C22.7498 20.0929 22.5286 19.5587 22.1348 19.1649C21.7409 18.7711 21.2068 18.5498 20.6498 18.5498C20.0929 18.5498 19.5587 18.7711 19.1649 19.1649C18.7711 19.5587 18.5498 20.0929 18.5498 20.6498V23.7998C18.5498 24.2175 18.3839 24.6182 18.0885 24.9135C17.7931 25.2089 17.3925 25.3748 16.9748 25.3748C16.5571 25.3748 16.1565 25.2089 15.8611 24.9135C15.5658 24.6182 15.3998 24.2175 15.3998 23.7998ZM13.2998 16.9748V23.7998C13.2998 24.2175 13.1339 24.6182 12.8385 24.9135C12.5432 25.2089 12.1425 25.3748 11.7248 25.3748C11.3071 25.3748 10.9065 25.2089 10.6111 24.9135C10.3158 24.6182 10.1498 24.2175 10.1498 23.7998V16.9748C10.1498 16.5571 10.3158 16.1565 10.6111 15.8611C10.9065 15.5658 11.3071 15.3998 11.7248 15.3998C12.1425 15.3998 12.5432 15.5658 12.8385 15.8611C13.1339 16.1565 13.2998 16.5571 13.2998 16.9748ZM9.62483 11.1998C9.62483 10.7845 9.74799 10.3785 9.97874 10.0331C10.2095 9.68779 10.5375 9.41863 10.9212 9.25968C11.3049 9.10074 11.7272 9.05915 12.1345 9.14018C12.5419 9.22121 12.9161 9.42121 13.2098 9.7149C13.5034 10.0086 13.7034 10.3828 13.7845 10.7901C13.8655 11.1975 13.8239 11.6197 13.665 12.0035C13.506 12.3872 13.2369 12.7152 12.8915 12.9459C12.5462 13.1767 12.1402 13.2998 11.7248 13.2998C11.1679 13.2998 10.6337 13.0786 10.2399 12.6848C9.84608 12.2909 9.62483 11.7568 9.62483 11.1998Z" fill="#333333"/>
</svg>
