<svg width="26" height="26" viewBox="0 0 26 26" fill="none" xmlns="http://www.w3.org/2000/svg">
<g clip-path="url(#clip0_2833_1215)">
<path d="M12.9314 12.9312L24.1428 24.1426" stroke="url(#paint0_linear_2833_1215)" stroke-width="2.5" stroke-linecap="round" stroke-linejoin="round"/>
<path d="M3.33146 4.20547L4.77146 8.4569C4.82117 8.55523 4.84706 8.66387 4.84706 8.77404C4.84706 8.88422 4.82117 8.99287 4.77146 9.09119L2.08003 12.6912C2.00272 12.7942 1.95592 12.917 1.94512 13.0454C1.93432 13.1738 1.95986 13.3026 2.019 13.4171C2.07797 13.5316 2.16814 13.6272 2.27889 13.6928C2.3898 13.7585 2.51683 13.7916 2.64575 13.7883H7.13717C7.24723 13.7916 7.35523 13.8194 7.45312 13.8699C7.551 13.9203 7.63638 13.992 7.70289 14.0798L10.2057 17.6798C10.2791 17.785 10.3806 17.8675 10.4985 17.918C10.6165 17.9684 10.7463 17.9847 10.8731 17.9651C10.9999 17.9454 11.1186 17.8906 11.2158 17.8068C11.313 17.7231 11.3847 17.6137 11.4228 17.4912L12.76 13.2055C12.7905 13.0995 12.8474 13.0031 12.9253 12.9251C13.0033 12.8472 13.0998 12.7903 13.2057 12.7598L17.4914 11.4226C17.6139 11.3845 17.7233 11.3128 17.8071 11.2156C17.8908 11.1184 17.9457 10.9996 17.9653 10.8729C17.985 10.7461 17.9686 10.6163 17.9182 10.4983C17.8677 10.3803 17.7852 10.2789 17.68 10.2055L14.0114 7.6169C13.9237 7.55037 13.8519 7.46502 13.8015 7.36711C13.7511 7.26923 13.7232 7.16126 13.72 7.05119V2.55976C13.7152 2.44179 13.68 2.32706 13.6179 2.22667C13.5558 2.12628 13.4688 2.04363 13.3653 1.98674C13.2618 1.92984 13.1455 1.90061 13.0274 1.9019C12.9093 1.90318 12.7936 1.93492 12.6914 1.99405L9.09141 4.68547C9.00002 4.74895 8.89487 4.78982 8.7846 4.80472C8.67432 4.81963 8.56209 4.80813 8.45714 4.77119L4.20575 3.33119C4.08386 3.28835 3.9522 3.28082 3.8262 3.30948C3.7002 3.33816 3.58483 3.40187 3.49346 3.49324C3.40209 3.58463 3.33832 3.69998 3.30969 3.82598C3.28106 3.952 3.2886 4.08355 3.33146 4.20547Z" stroke="url(#paint1_linear_2833_1215)" stroke-width="2.5" stroke-linecap="round" stroke-linejoin="round"/>
</g>
<defs>
<linearGradient id="paint0_linear_2833_1215" x1="13" y1="24" x2="25.5" y2="24" gradientUnits="userSpaceOnUse">
<stop stop-color="#F3D4D2"/>
<stop offset="1" stop-color="#A4BAE1"/>
</linearGradient>
<linearGradient id="paint1_linear_2833_1215" x1="9.95804" y1="1.90186" x2="9.95804" y2="17.9732" gradientUnits="userSpaceOnUse">
<stop stop-color="#F3D4D2"/>
<stop offset="1" stop-color="#A4BAE1"/>
</linearGradient>
<clipPath id="clip0_2833_1215">
<rect width="26" height="26" fill="white" transform="matrix(-1 0 0 1 26 0)"/>
</clipPath>
</defs>
</svg>
