<svg xmlns="http://www.w3.org/2000/svg" fill="none" viewBox="-1.25 -1.25 29 29" height="29" width="29"><g id="ok-hand"><path id="Ellipse 305 (Stroke)" stroke="#333333" stroke-linecap="round" stroke-linejoin="round" d="M16.951614642857145 25.19184642857143c0.8794403571428573 -0.2640535714285715 1.7227839285714288 -0.7014928571428571 2.4789425000000005 -1.3176178571428574 1.0206285714285714 -0.8313428571428572 1.758464285714286 -1.8902071428571432 2.193632142857143 -3.045417857142857 0.4682928571428572 -1.2430392857142858 -0.15975714285714288 -2.6300682142857146 -1.402607142857143 -3.0982664285714288 -0.35528928571428575 -0.133825 -0.7223142857142858 -0.17809892857142856 -1.0762785714285714 -0.14404642857142858 0.3469607142857143 -0.0801057142857143 0.6816178571428572 -0.23880285714285715 0.9763357142857144 -0.4789117857142858 1.0297142857142858 -0.8388764285714286 1.1082678571428572 -2.748655714285715 0.26935357142857147 -3.7783700000000002 -1.5169925000000002 -1.8621550000000002 -3.7708932142857146 -2.770404642857143 -5.9986725000000005 -2.6468578571428574l2.498722857142857 -5.72892142857143c0.5981807142857144 -1.3714696428571431 -0.04347892857142858 -2.9670157142857145 -1.4246210714285716 -3.5424878214285718v0C14.333679642857145 0.9389726071428571 13.028762857142858 1.2965901071428574 12.346652857142859 2.316686785714286 10.47068 5.1221660714285715 7.0210425 10.811394285714288 6.806203214285715 15.000135714285715c-0.29604285714285716 5.7717 0.0000567857142857143 10.191710714285714 0.0000567857142857143 10.191710714285714" stroke-width="2.5"></path><path id="Ellipse 305 (Stroke)_2" fill-rule="evenodd" stroke="#333333" stroke-linecap="round" stroke-linejoin="round" d="M13.554068571428573 16.354153214285716c-1.029695357142857 0.8388764285714286 -1.184379642857143 2.353673214285714 -0.3455032142857143 3.3834253571428574 0.8388764285714286 1.0297142857142858 2.353654285714286 1.1843607142857144 3.3833496428571435 0.3454464285714286 0.3443107142857143 -0.2805214285714286 0.5869371428571429 -0.6305107142857144 0.7306807142857143 -1.0121107142857142 0.29481250000000003 -0.7826585714285715 0.9539432142857144 -1.3214792857142859 1.7119757142857144 -1.4963414285714287 -0.7738189285714286 0.07450285714285715 -1.5692921428571431 -0.22697250000000002 -2.097134285714286 -0.8748975000000001 -0.8388764285714286 -1.029695357142857 -2.353654285714286 -1.1843985714285716 -3.3833685714285715 -0.3455221428571429Z" clip-rule="evenodd" stroke-width="2.5"></path><path id="Vector 529" stroke="#333333" stroke-linecap="round" stroke-linejoin="round" d="M14.407879642857145 10.687071428571429c-0.4835871428571429 0.057277857142857144 -1.6339710714285716 0.2710760714285715 -2.3667907142857145 0.6680082142857143" stroke-width="2.5"></path><path id="Ellipse 305 (Stroke)_3" stroke="#333333" stroke-linecap="round" stroke-linejoin="round" d="M6.701282142857143 17.033632142857147c-1.693974642857143 -3.7874367857142865 -1.618146785714286 -10.008557857142858 -1.4392150000000001 -13.229670714285716 0.06806714285714287 -1.2252464285714286 1.0094039285714287 -2.197160428571429 2.2246750000000004 -2.3673131428571432 1.4817853571428574 -0.20746471428571428 2.8461000000000003 0.8394935000000001 3.029101428571429 2.3244967142857145l0 1.511522142857143" stroke-width="2.5"></path></g></svg>