<svg width="40" height="40" viewBox="0 0 40 40" fill="none" xmlns="http://www.w3.org/2000/svg">
<path d="M20 4.79166V20H29.125V13.9167C29.125 11.4966 28.1636 9.17558 26.4523 7.46431C24.7411 5.75304 22.4201 4.79166 20 4.79166Z" fill="white"/>
<path d="M35.2083 20H20V29.125H26.0833C28.5034 29.125 30.8244 28.1636 32.5357 26.4523C34.247 24.7411 35.2083 22.4201 35.2083 20Z" fill="#F3D4D2"/>
<path d="M20 35.2083V20H10.875V26.0833C10.875 28.5034 11.8364 30.8244 13.5477 32.5357C15.2589 34.247 17.5799 35.2083 20 35.2083Z" fill="white"/>
<path d="M20 4.79166V20H29.125V13.9167C29.125 11.4966 28.1636 9.17558 26.4523 7.46431C24.7411 5.75304 22.4201 4.79166 20 4.79166Z" stroke="#333333" stroke-width="3" stroke-linejoin="round"/>
<path d="M20 35.2083V20H10.875V26.0833C10.875 28.5034 11.8364 30.8244 13.5477 32.5357C15.2589 34.247 17.5799 35.2083 20 35.2083Z" stroke="#333333" stroke-width="3" stroke-linejoin="round"/>
<path d="M4.79102 20H19.9993V10.875H13.916C11.4959 10.875 9.17494 11.8364 7.46367 13.5477C5.7524 15.2589 4.79102 17.5799 4.79102 20Z" fill="#F3D4D2"/>
<path d="M35.2083 20H20V29.125H26.0833C28.5034 29.125 30.8244 28.1636 32.5357 26.4523C34.247 24.7411 35.2083 22.4201 35.2083 20Z" stroke="#333333" stroke-width="3" stroke-linejoin="round"/>
<path d="M4.79102 20H19.9993V10.875H13.916C11.4959 10.875 9.17494 11.8364 7.46367 13.5477C5.7524 15.2589 4.79102 17.5799 4.79102 20Z" stroke="#333333" stroke-width="3" stroke-linejoin="round"/>
</svg>
