<svg xmlns="http://www.w3.org/2000/svg" fill="none" viewBox="0 0 29 29" height="29" width="29"><g id="sign-at--mail-email-at-sign-read-address"><path id="Union" fill="#333333" fill-rule="evenodd" d="M15.124104166666667 0.90625C7.4040625 0.90625 0.90625 6.902604166666666 0.90625 14.89875c0 7.123124999999999 5.25625 13.194999999999999 12.454291666666666 13.194999999999999 1.6330624999999999 0 2.779770833333333 -0.21266666666666664 3.4757708333333333 -0.6827083333333333 0.5920833333333333 -0.380625 0.8953749999999999 -0.9153124999999999 0.9775416666666666 -1.4953125 0.08035416666666667 -0.5703333333333332 -0.05437499999999999 -1.1666458333333334 -0.3020833333333333 -1.6946875 -0.16675 -0.35645833333333327 -0.5485833333333333 -0.5159583333333333 -0.8989999999999999 -0.46641666666666665 -0.9859999999999999 0.13774999999999998 -1.944208333333333 0.25375 -2.9265833333333333 0.25375 -5.173479166666667 0 -8.6945625 -4.529437499999999 -8.6945625 -9.110229166666667 0 -5.22 4.609791666666666 -9.933708333333334 10.131874999999999 -9.933708333333334 2.7791666666666663 0 4.998874999999999 0.8820833333333332 6.520770833333333 2.2988541666666666 1.5212916666666665 1.4155624999999998 2.3641041666666665 3.3809166666666663 2.3641041666666665 5.586729166666666 0 1.5641874999999998 -0.4742708333333333 2.9332291666666666 -1.2083333333333333 3.745833333333333 -0.3649166666666666 0.40297916666666667 -0.7872291666666665 0.6627708333333333 -1.2439791666666666 0.7552083333333333 -0.402375 0.08216666666666667 -0.8524791666666667 0.039875 -1.3436666666666668 -0.17762499999999998l0.7975 -5.182541666666666c0.20420833333333333 -1.083875 -0.2851666666666666 -2.141770833333333 -1.1515416666666665 -2.7707083333333333l-0.0024166666666666664 -0.0012083333333333332c-1.3841458333333332 -0.9847916666666665 -3.0220416666666665 -1.3932083333333334 -4.6780625 -1.3932083333333334 -4.1596874999999995 0 -7.164812499999999 3.157979166666667 -7.164812499999999 7.271749999999999 0 1.7037499999999999 0.5890624999999999 3.1833541666666667 1.6233958333333331 4.238229166666666 1.0349375 1.0554791666666667 2.4982291666666665 1.6674999999999998 4.21225 1.6674999999999998 1.1455 0 2.3502083333333332 -0.2193125 3.38575 -0.8017291666666666C18.311687499999998 20.853416666666664 19.587083333333332 21.145833333333332 20.8201875 21.145833333333332c2.420895833333333 0 4.2521249999999995 -0.9437083333333333 5.472541666666666 -2.4710416666666664 1.2125625 -1.5188749999999998 1.801020833333333 -3.589958333333333 1.801020833333333 -5.824166666666667C28.09375 5.595791666666667 21.77477083333333 0.90625 15.124104166666667 0.90625ZM13.787083333333333 12.923124999999999c0.3836458333333333 -0.48575 0.8337499999999999 -0.7098958333333333 1.3636041666666667 -0.7098958333333333 0.33289583333333334 0 0.6663958333333333 0.03625 0.9286041666666666 0.15285416666666665l-0.37579166666666663 4.099875c-0.29966666666666664 0.19272916666666665 -0.6525 0.29241666666666666 -1.0681666666666667 0.29241666666666666 -0.5117291666666666 0 -0.8548958333333333 -0.18608333333333332 -1.0778333333333332 -0.46702083333333333 -0.2301875 -0.29 -0.35645833333333327 -0.7147291666666666 -0.35645833333333327 -1.2222291666666667 0 -0.9878125 0.21024999999999996 -1.685625 0.5830208333333333 -2.141770833333333l0.0030208333333333333 -0.0036249999999999998Z" clip-rule="evenodd" stroke-width="0.6041666666666666"></path></g></svg>