<svg xmlns="http://www.w3.org/2000/svg" fill="none" viewBox="-1.75 -1.75 29 29" height="29" width="29"><g id="wind-flow-2--wind-flow-weather"><path id="Vector" stroke="#333333" stroke-linecap="round" stroke-linejoin="round" d="M0.9107142857142858 6.375000000000001c2.281667142857143 -1.0900885714285715 4.759483928571429 -1.7095564285714286 7.2857142857142865 -1.8214285714285716 3.6428571428571432 0 5.464285714285715 2.7321428571428577 9.107142857142858 2.7321428571428577 2.526139285714286 -0.11187214285714288 5.004010714285715 -0.7313400000000001 7.2857142857142865 -1.8214285714285716l-3.6428571428571432 -1.8214285714285716" stroke-width="3.5"></path><path id="Vector_2" stroke="#333333" stroke-linecap="round" stroke-linejoin="round" d="M0.9107142857142858 13.660714285714286c2.281667142857143 -1.0900885714285715 4.759483928571429 -1.7095564285714286 7.2857142857142865 -1.8214285714285716 3.6428571428571432 0 5.464285714285715 2.7321428571428577 9.107142857142858 2.7321428571428577 2.526139285714286 -0.11187214285714288 5.004010714285715 -0.7313400000000001 7.2857142857142865 -1.8214285714285716l-3.6428571428571432 -1.8214285714285716" stroke-width="3.5"></path><path id="Vector_3" stroke="#333333" stroke-linecap="round" stroke-linejoin="round" d="M0.9107142857142858 20.946428571428573c2.281667142857143 -1.0901250000000002 4.759483928571429 -1.7095928571428574 7.2857142857142865 -1.8214285714285716 3.6428571428571432 0 5.464285714285715 2.7321428571428577 9.107142857142858 2.7321428571428577 2.526139285714286 -0.1118357142857143 5.004010714285715 -0.7313035714285715 7.2857142857142865 -1.8214285714285716l-3.6428571428571432 -1.8214285714285716" stroke-width="3.5"></path></g></svg>